<svg xmlns="http://www.w3.org/2000/svg" width="1200" height="360" viewBox="0 0 1200 360"><style>text{font-family:Arial,'Noto Sans CJK SC',sans-serif;fill:#111}.t{font-size:30px;font-weight:700}.l{font-size:24px}.s{font-size:20px}.box{fill:#f7fbff;stroke:#2b6cb0;stroke-width:3}.arrow{stroke:#111;stroke-width:3;marker-end:url(#a)}</style><defs><marker id="a" markerWidth="10" markerHeight="10" refX="8" refY="3" orient="auto"><path d="M0,0 L0,6 L9,3 z" fill="#111"/></marker></defs><text x="600" y="45" text-anchor="middle" class="t">连续时间信号的数字化处理框图（据 PPT 第77页重绘）</text><text x="30" y="190" class="l">xₐ(t)</text><rect x="120" y="120" width="170" height="110" rx="10" class="box"/><text x="205" y="166" text-anchor="middle" class="l">前置预</text><text x="205" y="201" text-anchor="middle" class="l">滤波器</text><rect x="340" y="120" width="150" height="110" rx="10" class="box"/><text x="415" y="185" text-anchor="middle" class="l">A/D</text><rect x="540" y="120" width="190" height="110" rx="10" class="box"/><text x="635" y="166" text-anchor="middle" class="l">数字信号</text><text x="635" y="201" text-anchor="middle" class="l">处理器</text><rect x="780" y="120" width="150" height="110" rx="10" class="box"/><text x="855" y="185" text-anchor="middle" class="l">D/A</text><rect x="980" y="120" width="170" height="110" rx="10" class="box"/><text x="1065" y="166" text-anchor="middle" class="l">模拟平滑</text><text x="1065" y="201" text-anchor="middle" class="l">滤波器</text><line x1="75" y1="175" x2="115" y2="175" class="arrow"/><line x1="290" y1="175" x2="335" y2="175" class="arrow"/><line x1="490" y1="175" x2="535" y2="175" class="arrow"/><line x1="730" y1="175" x2="775" y2="175" class="arrow"/><line x1="930" y1="175" x2="975" y2="175" class="arrow"/><line x1="1150" y1="175" x2="1190" y2="175" class="arrow"/><text x="505" y="105" class="s">x[n]</text><text x="742" y="105" class="s">y[n]</text><text x="1135" y="275" text-anchor="end" class="s">yₐ(t)</text></svg>