<svg xmlns="http://www.w3.org/2000/svg" width="1200" height="520" viewBox="0 0 1200 520"><style>text{font-family:Arial,'Noto Sans CJK SC',sans-serif;fill:#111}.t{font-size:30px;font-weight:700}.l{font-size:23px}.axis{stroke:#111;stroke-width:2}.sig{fill:none;stroke:#2b6cb0;stroke-width:4}.stem{stroke:#c53030;stroke-width:3}.dot{fill:#c53030}.box{fill:#fffaf0;stroke:#dd6b20;stroke-width:3}.arrow{stroke:#111;stroke-width:3;marker-end:url(#a)}</style><defs><marker id="a" markerWidth="10" markerHeight="10" refX="8" refY="3" orient="auto"><path d="M0,0 L0,6 L9,3 z" fill="#111"/></marker></defs><text x="600" y="42" text-anchor="middle" class="t">采样的两步等效过程（据教材图2.5-1/2.5-2重绘）</text><text x="50" y="95" class="l">① xₐ(t) × 周期冲激串 → xₛ(t)</text><line x1="70" y1="250" x2="520" y2="250" class="axis"/><line x1="100" y1="90" x2="100" y2="290" class="axis"/><path d="M100 210 C150 120 210 120 260 210 C310 300 370 300 420 210 C455 150 485 145 520 195" class="sig"/><g class="stem"><line x1="140" y1="250" x2="140" y2="171"/><line x1="200" y1="250" x2="200" y2="137"/><line x1="260" y1="250" x2="260" y2="210"/><line x1="320" y1="250" x2="320" y2="286"/><line x1="380" y1="250" x2="380" y2="279"/><line x1="440" y1="250" x2="440" y2="174"/></g><g class="dot"><circle cx="140" cy="171" r="6"/><circle cx="200" cy="137" r="6"/><circle cx="260" cy="210" r="6"/><circle cx="320" cy="286" r="6"/><circle cx="380" cy="279" r="6"/><circle cx="440" cy="174" r="6"/></g><text x="520" y="278" class="l">t</text><rect x="610" y="120" width="210" height="90" rx="10" class="box"/><text x="715" y="158" text-anchor="middle" class="l">取冲激幅度</text><text x="715" y="190" text-anchor="middle" class="l">形成序列</text><line x1="535" y1="170" x2="600" y2="170" class="arrow"/><line x1="830" y1="170" x2="900" y2="170" class="arrow"/><text x="630" y="260" class="l">② x[n] = xₐ(nT)</text><line x1="690" y1="420" x2="1120" y2="420" class="axis"/><line x1="740" y1="305" x2="740" y2="450" class="axis"/><g class="stem"><line x1="800" y1="420" x2="800" y2="350"/><line x1="860" y1="420" x2="860" y2="325"/><line x1="920" y1="420" x2="920" y2="385"/><line x1="980" y1="420" x2="980" y2="450"/><line x1="1040" y1="420" x2="1040" y2="444"/><line x1="1100" y1="420" x2="1100" y2="352"/></g><g class="dot"><circle cx="800" cy="350" r="6"/><circle cx="860" cy="325" r="6"/><circle cx="920" cy="385" r="6"/><circle cx="980" cy="450" r="6"/><circle cx="1040" cy="444" r="6"/><circle cx="1100" cy="352" r="6"/></g><text x="1120" y="448" class="l">n</text></svg>